<svg xmlns="http://www.w3.org/2000/svg" width="14.925" height="6.61" viewBox="0 0 14.925 6.61">
    <path id="Icon_awesome-eye" d="M14.835,7.554C13.43,5.732,10.648,4.5,7.463,4.5S1.495,5.733.09,7.554a.4.4,0,0,0,0,.5C1.5,9.878,4.277,11.11,7.463,11.11s5.968-1.233,7.372-3.054A.4.4,0,0,0,14.835,7.554Zm-7.372,2.73c-2.061,0-3.731-1.11-3.731-2.479S5.4,5.326,7.463,5.326s3.731,1.11,3.731,2.479S9.524,10.285,7.463,10.284Zm0-4.131a3.64,3.64,0,0,0-.656.065.635.635,0,0,1-.122,1.071,1.732,1.732,0,0,1-1.612.081c-.279.683.129,1.407,1.013,1.8A3.537,3.537,0,0,0,8.978,9.11c.845-.43,1.183-1.171.839-1.84A2.622,2.622,0,0,0,7.463,6.153Z" transform="translate(0 -4.5)" opacity="0.54"/>
</svg>
