<svg xmlns="http://www.w3.org/2000/svg" width="15.606" height="17.616" viewBox="0 0 15.606 17.616">
    <path id="Icon_zocial-guest" d="M4.7,17.144a4.785,4.785,0,0,1,.246-1.253A7.361,7.361,0,0,1,6.725,12.8a7.734,7.734,0,0,1,3.029-2.015A3.8,3.8,0,0,1,8.132,7.631,3.73,3.73,0,0,1,9.415,4.773,4.364,4.364,0,0,1,12.465,3.6a4.366,4.366,0,0,1,3.049,1.174A3.73,3.73,0,0,1,16.8,7.631a3.808,3.808,0,0,1-1.581,3.132,8.038,8.038,0,0,1,3.634,2.485,5.888,5.888,0,0,1,1.458,3.875q0,1.8-1.5,2.075a2.2,2.2,0,0,1-.267.509,1.236,1.236,0,0,1-.483.558,3.129,3.129,0,0,1-1,.4c-.425.1-.763.183-1.016.234s-.64.111-1.161.177-.787.1-.8.1a.917.917,0,0,0-.144.019.971.971,0,0,1-.142.021H11.335a13.962,13.962,0,0,1-2.648-.324q-1.6-.322-1.828-.871a2,2,0,0,1-.513-.822,1.754,1.754,0,0,1-.862-.411Q4.7,18.494,4.7,17.144Z" transform="translate(-4.703 -3.599)" fill="#fcfcfc"/>
</svg>
