<svg xmlns="http://www.w3.org/2000/svg" width="9.979" height="13" viewBox="0 0 9.979 13">
    <path id="Icon_simple-sitepoint" d="M3.211,5.705l.882.914L6.88,9.4,8.074,8.163a.466.466,0,0,0-.023-.534L6.954,6.6l0,0L5.779,5.37a.455.455,0,0,1,.01-.584L8.97,1.494,7.53,0,3.213,4.462a.9.9,0,0,0,0,1.243ZM12.7,7.3l-.881-.916L9.031,3.6l-1.2,1.241a.447.447,0,0,0,.022.534l1.1,1.024h0l1.179,1.227a.444.444,0,0,1-.014.576L6.931,11.488,8.38,13,12.7,8.538a.9.9,0,0,0,0-1.243v0Z" transform="translate(-2.965)"/>
</svg>
