<?xml version="1.0"?>
<svg xmlns="http://www.w3.org/2000/svg" xmlns:xlink="http://www.w3.org/1999/xlink" xmlns:svgjs="http://svgjs.com/svgjs" version="1.1" width="512" height="512" x="0" y="0" viewBox="0 0 64 64" style="enable-background:new 0 0 512 512" xml:space="preserve" class=""><g><g xmlns="http://www.w3.org/2000/svg" id="Solid"><path d="m32 3a21.134 21.134 0 0 0 -21 21.267c0 18.366 21 36.733 21 36.733s21-18.367 21-36.733a21.134 21.134 0 0 0 -21-21.267zm0 39a18 18 0 1 1 18-18 18.021 18.021 0 0 1 -18 18z" fill="#120046"  style="" class=""/><path d="m32 8a16 16 0 1 0 16 16 16.019 16.019 0 0 0 -16-16zm11 19h-8v8h-6v-8h-8v-6h8v-8h6v8h8z" fill="#120046"
    style="" class=""/></g></g></svg>
