<svg xmlns="http://www.w3.org/2000/svg" width="50.375" height="48.447" viewBox="0 0 50.375 48.447">
    <g id="Icon_ionic-ios-checkmark-circle-outline" transform="translate(-3.375 -3.375)">
        <path id="Path_1" d="M37.3,14.454l-2.207-2.108a.493.493,0,0,0-.351-.14h0a.472.472,0,0,0-.351.14l-15.3,14.313L13.52,21.488a.511.511,0,0,0-.7,0l-2.232,2.073a.441.441,0,0,0,0,.664l7.023,6.522a2.294,2.294,0,0,0,1.467.664,2.4,2.4,0,0,0,1.455-.641h.013L37.311,15.118A.472.472,0,0,0,37.3,14.454Z" transform="translate(4.633 5.796)"/>
        <path id="Path_2" d="M28.563,6.636a22.1,22.1,0,0,1,15.415,6.137,20.411,20.411,0,0,1,0,29.651,22.428,22.428,0,0,1-30.831,0,20.411,20.411,0,0,1,0-29.651A22.1,22.1,0,0,1,28.563,6.636m0-3.261C14.649,3.375,3.375,14.217,3.375,27.6S14.649,51.822,28.563,51.822,53.75,40.98,53.75,27.6,42.477,3.375,28.563,3.375Z" transform="translate(0)"/>
    </g>
</svg>
